# xmcd
#
# Track frame offsets:
# 150
# 15123
# 32989
# 48565
# 65011
# 84662
# 100687
# 119919
# 138350
# 156694
# 176623
#
# Disc length: 2593 seconds
#
# Revision: 0
# Processed by: cddbd v1.5.2PL0 Copyright (c) Steve Scherf et al.
# Submitted via: Axialis_AX_CDPlayer 2.6
#
DISCID=990a1f0b
DTITLE=James Otto - Sunset Man
DYEAR=1900
DGENRE=
TTITLE0=Ain't Gonna Stop
TTITLE1=Just Got Started Lovin' You
TTITLE2=For You
TTITLE3=These Are The Good Ole Days
TTITLE4=Where Angels Hang Around
TTITLE5=Sunset Man
TTITLE6=You Don't Act Like My Woman
TTITLE7=When A Woman's Not Watching
TTITLE8=Drink and Dial
TTITLE9=Damn Right
TTITLE10=The Man That I Am
EXTD=www.myspace.com/jamesotto
EXTT0=
EXTT1=
EXTT2=
EXTT3=
EXTT4=
EXTT5=
EXTT6=
EXTT7=
EXTT8=
EXTT9=
EXTT10=
PLAYORDER=
